<svg width="1280" height="640" viewBox="0 0 1280 640" fill="none" xmlns="http://www.w3.org/2000/svg">
<g clip-path="url(#clip0_422_424)">
<rect width="1280" height="640" fill="white"/>
<path d="M466 -36H1405.05V666.321H466V-36Z" fill="white"/>
<path d="M531.227 75.3792L488.825 139.937V645.804H1405.05V75.6576L1396.89 57.8636L1355.79 139.937L1284.03 25.3345L1220.43 154.95L1191.07 107.408L1162.7 139.937L1073.98 5.81714L1007.76 118.418L978 44.8519L939 134L937.5 138L851.202 25.3345L800.319 107.408L743.891 5.81714L725.626 44.8519L696.27 5.81714L627.122 107.408L611.465 90.3926L570.694 154.95L531.227 75.3792Z" fill="url(#paint0_linear_422_424)" fill-opacity="0.8"/>
<path d="M1338.52 132.818L1380.92 197.376V639.603L466 645.477V133.423L472.858 115.302L513.956 197.376L585.713 82.7733L649.317 212.389L678.672 164.846L707.049 197.376L795.768 63.2559L861.981 175.856L923.954 82.7733L971.901 164.846L1018.54 82.7733L1069.43 164.846L1125.85 63.2559L1144.12 102.291L1173.48 63.2559L1242.62 164.846L1258.28 147.831L1299.05 212.389L1338.52 132.818Z" fill="url(#paint1_linear_422_424)" fill-opacity="0.8"/>
<path d="M508.402 93.6549L466 158.212V603.86H1405.05V158.212L1374.06 76.1393L1332.96 158.212L1261.21 43.6103L1197.6 173.226L1168.25 125.683L1139.87 158.212L1051.15 24.0929L984.94 136.693L954 88.4999L938 143L875.02 125.683L828.377 43.6103L777.494 125.683L721.066 24.0929L702.801 63.1277L673.445 24.0929L604.297 125.683L588.641 108.668L547.869 173.226L508.402 93.6549Z" fill="url(#paint2_linear_422_424)" fill-opacity="0.8"/>
<path d="M560.231 132.83L466 212.416L466 605.335H1405.05V258.465V132.83L1384.51 197.399L1312.77 82.7768L1249.19 212.416L1219.85 164.865L1191.48 197.399L1102.79 63.2559L1036.6 175.876L958 74.5001L932.5 152L880.094 82.7768L829.229 164.865L772.821 63.2559L754.562 102.298L725.216 63.2559L656.092 164.865L640.441 147.846L599.684 212.416L560.231 132.83Z" fill="url(#paint3_linear_422_424)"/>
<path d="M516.539 150.72L466 194.805V605.335H1405.05V277.394V151.372L1382.59 216.328L1308.56 101.706L1242.94 231.344L1212.66 183.793L1183.39 216.328L1091.86 82.1846L1023.55 194.805L956 101.706L927.5 183.793H910.157L862.039 101.706L809.547 183.793L751.334 82.1846L732.491 121.226L702.207 82.1846L630.871 183.793L614.72 166.775L572.659 231.344L516.539 150.72Z" fill="url(#paint4_linear_422_424)"/>
<path d="M562.655 177.701L466 262.322L466 635.686H1405.05V311.285V280.004V246.356L1334.56 124.48L1269.34 262.322L1239.24 211.762L1210.15 246.356L1119.18 103.724L1051.28 223.471L987.739 124.48L938.575 211.762L890.749 124.48L838.575 211.762L780.716 103.724L761.986 145.236L731.886 103.724L660.983 211.762L644.93 193.667L603.124 262.322L562.655 177.701Z" fill="url(#paint5_linear_422_424)"/>
<path d="M0 -36H939.048V666.321H0V-36Z" fill="white"/>
<path d="M65.2271 75.3792L22.8247 139.937V645.804H939.049V132.5L919 59L889.79 139.937L818.032 25.3345L754.428 154.95L725.073 107.408L696.696 139.937L607.977 5.81714L541.764 118.418L479.792 25.3345L431.844 107.408L385.202 25.3345L334.319 107.408L277.891 5.81714L259.626 44.8519L230.27 5.81714L161.122 107.408L145.465 90.3926L104.694 154.95L65.2271 75.3792Z" fill="url(#paint6_linear_422_424)" fill-opacity="0.8"/>
<path d="M872.518 132.818L914.92 197.376V639.603L0.000323236 645.477V133.423L6.85782 115.302L47.9555 197.376L119.713 82.7733L183.317 212.389L212.672 164.846L241.049 197.376L329.768 63.2559L395.981 175.856L457.954 82.7733L505.901 164.846L552.543 82.7733L603.426 164.846L659.854 63.2559L678.12 102.291L707.475 63.2559L776.624 164.846L792.28 147.831L833.051 212.389L872.518 132.818Z" fill="url(#paint7_linear_422_424)" fill-opacity="0.8"/>
<path d="M42.4023 93.6549L0 158.212V603.86H939.048V158.212L908.063 76.1393L866.965 158.212L795.207 43.6103L731.604 173.226L702.248 125.683L673.871 158.212L585.152 24.0929L518.939 136.693L456.967 43.6103L409.02 125.683L362.377 43.6103L311.494 125.683L255.066 24.0929L236.801 63.1277L207.445 24.0929L138.297 125.683L122.641 108.668L81.8691 173.226L42.4023 93.6549Z" fill="url(#paint8_linear_422_424)" fill-opacity="0.8"/>
<path d="M94.2309 132.83L0 212.416L0 605.335H939.048V258.465V132.83L918.507 197.399L846.774 82.7768L783.192 212.416L753.847 164.865L725.48 197.399L636.792 63.2559L570.602 175.876L508.651 82.7768L460.721 164.865L414.094 82.7768L363.229 164.865L306.821 63.2559L288.562 102.298L259.216 63.2559L190.092 164.865L174.441 147.846L133.684 212.416L94.2309 132.83Z" fill="url(#paint9_linear_422_424)"/>
<path d="M50.5391 150.72L0 194.805V605.335H939.048V277.394V151.372L916.587 216.328L842.56 101.706L776.944 231.344L746.66 183.793L717.386 216.328L625.861 82.1846L557.554 194.805L493.621 101.706L444.157 183.793L396.039 101.706L343.547 183.793L285.334 82.1846L266.491 121.226L236.207 82.1846L164.871 183.793L148.72 166.775L106.659 231.344L50.5391 150.72Z" fill="url(#paint10_linear_422_424)"/>
<path d="M96.6555 177.701L0 262.322L0 635.686H939.048V311.285V280.004V246.356L868.561 124.48L803.344 262.322L773.244 211.762L744.147 246.356L653.177 103.724L585.284 223.471L521.739 124.48L472.575 211.762L424.749 124.48L372.575 211.762L314.716 103.724L295.986 145.236L265.886 103.724L194.983 211.762L178.93 193.667L137.124 262.322L96.6555 177.701Z" fill="url(#paint11_linear_422_424)"/>
<path d="M1280 429.806C1280 453.263 1280 778.444 1280 778.444H0C0 778.444 0 440.086 0 429.806C0 406.349 286.538 387.333 640 387.333C993.462 387.333 1280 406.349 1280 429.806Z" fill="url(#paint12_linear_422_424)"/>
<path fill-rule="evenodd" clip-rule="evenodd" d="M878.484 391.35C878.478 390.764 879.049 390.284 879.76 390.279C880.47 390.273 881.052 390.744 881.058 391.331L879.771 391.34L878.484 391.35ZM879.771 391.34C878.484 391.35 878.484 391.35 878.484 391.35V391.351L878.485 391.354L878.485 391.367L878.485 391.419L878.487 391.624C878.488 391.805 878.49 392.074 878.492 392.425C878.496 393.125 878.5 394.15 878.499 395.445C878.496 398.037 878.475 401.714 878.4 406.051C878.249 414.727 877.88 426.035 877.012 436.586C876.793 439.24 875.745 441.991 872.533 444.999C869.284 448.042 863.79 451.376 854.607 455.089C853.969 455.347 853.705 455.983 854.018 456.509C854.331 457.036 855.101 457.253 855.74 456.995C865.069 453.224 870.899 449.742 874.464 446.402C878.068 443.027 879.325 439.828 879.58 436.73C880.452 426.125 880.822 414.775 880.973 406.081C881.049 401.733 881.07 398.047 881.072 395.447C881.074 394.147 881.07 393.119 881.066 392.415C881.064 392.063 881.062 391.792 881.061 391.609L881.059 391.402L881.058 391.349L881.058 391.335L881.058 391.332V391.331C881.058 391.331 881.058 391.331 879.771 391.34ZM810.752 472.68C811.411 472.461 812.161 472.724 812.427 473.268C812.692 473.812 812.373 474.43 811.714 474.65C801.612 478.009 792.336 480.804 785.586 482.759C782.21 483.736 779.465 484.504 777.563 485.028C776.612 485.29 775.872 485.49 775.369 485.626C775.117 485.694 774.925 485.745 774.795 485.78L774.648 485.819L774.61 485.829L774.605 485.83L774.601 485.831L774.598 485.832L774.597 485.832L650.267 519.395C649.591 519.577 648.864 519.273 648.643 518.716C648.422 518.158 648.791 517.559 649.466 517.377L773.805 483.812L773.813 483.81L774.205 484.821C773.813 483.81 773.813 483.81 773.813 483.81L773.813 483.81L773.816 483.809L773.824 483.807L773.86 483.797L774.004 483.759C774.131 483.725 774.321 483.674 774.57 483.607C775.068 483.473 775.803 483.274 776.749 483.014C778.639 482.493 781.372 481.729 784.733 480.755C791.458 478.808 800.696 476.025 810.752 472.68ZM951.821 392.756C951.11 392.761 950.539 393.24 950.544 393.826L951.831 393.817C950.544 393.826 950.544 393.826 950.544 393.826V393.828L950.545 393.832L950.545 393.851L950.545 393.925L950.548 394.217C950.55 394.474 950.552 394.856 950.555 395.351C950.56 396.342 950.564 397.789 950.563 399.611C950.56 403.254 950.532 408.397 950.435 414.391C950.24 426.383 949.764 441.77 948.642 455.382C948.355 458.869 946.971 462.481 942.768 466.414C938.527 470.382 931.385 474.703 919.509 479.499C918.87 479.757 918.606 480.393 918.918 480.92C919.231 481.446 920.002 481.664 920.64 481.406C932.663 476.551 940.141 472.082 944.698 467.818C949.293 463.519 950.886 459.458 951.21 455.526C952.336 441.857 952.813 426.426 953.008 414.42C953.106 408.415 953.134 403.263 953.137 399.612C953.138 397.787 953.133 396.337 953.128 395.343C953.126 394.845 953.123 394.462 953.121 394.203L953.119 393.909L953.118 393.834L953.118 393.815L953.118 393.81L953.118 393.809C953.118 393.809 953.118 393.809 951.833 393.817L953.118 393.809C953.112 393.222 952.531 392.751 951.821 392.756ZM864.539 502.783C864.274 502.239 863.524 501.976 862.865 502.195C849.875 506.51 837.943 510.101 829.258 512.613C824.916 513.869 821.386 514.855 818.943 515.527C817.722 515.863 816.772 516.12 816.128 516.294C815.806 516.38 815.561 516.446 815.396 516.49L815.21 516.539L815.164 516.551L815.152 516.554L815.15 516.555L815.149 516.555C815.149 516.555 815.149 516.555 815.54 517.566L815.149 516.555L815.141 516.557L654.614 559.843C653.939 560.025 653.57 560.624 653.791 561.182C654.011 561.739 654.738 562.043 655.414 561.861L815.932 518.578L815.933 518.578L815.937 518.577L815.94 518.576L815.949 518.573L815.997 518.561L816.187 518.51C816.354 518.466 816.602 518.4 816.926 518.312C817.575 518.138 818.53 517.879 819.757 517.542C822.211 516.867 825.753 515.877 830.109 514.617C838.82 512.097 850.791 508.495 863.826 504.164C864.485 503.945 864.805 503.327 864.539 502.783ZM1025.63 397.011C1025.62 396.425 1026.2 395.946 1026.91 395.941C1027.62 395.936 1028.2 396.407 1028.2 396.994L1026.92 397.002L1025.63 397.011ZM1026.92 397.002C1028.2 396.994 1028.2 396.994 1028.2 396.994V396.996L1028.2 397.002L1028.2 397.026L1028.2 397.12L1028.21 397.301L1028.21 397.489C1028.21 397.814 1028.21 398.295 1028.22 398.92C1028.22 400.168 1028.23 401.99 1028.23 404.283C1028.22 408.868 1028.19 415.339 1028.07 422.882C1027.82 437.965 1027.22 457.346 1025.81 474.512C1025.41 479.394 1023.44 484.438 1017.74 489.793C1012.07 495.112 1002.74 500.708 987.694 506.8C987.056 507.059 986.284 506.841 985.971 506.315C985.658 505.789 985.921 505.153 986.559 504.894C1001.46 498.861 1010.45 493.413 1015.8 488.391C1021.12 483.403 1022.88 478.807 1023.25 474.369C1024.65 457.259 1025.25 437.922 1025.49 422.854C1025.62 415.322 1025.65 408.86 1025.65 404.281C1025.66 401.992 1025.65 400.174 1025.64 398.928C1025.64 398.306 1025.64 397.826 1025.63 397.502L1025.63 397.135L1025.63 397.042L1025.63 397.019L1025.63 397.013V397.012C1025.63 397.011 1025.63 397.011 1026.92 397.002ZM915.565 533.416C916.224 533.196 916.974 533.459 917.24 534.003C917.506 534.546 917.188 535.165 916.529 535.385C900.202 540.823 885.208 545.348 874.296 548.513C868.84 550.095 864.404 551.338 861.33 552.186C859.794 552.609 858.597 552.934 857.785 553.153C857.379 553.263 857.069 553.346 856.86 553.402L856.623 553.465L856.562 553.481L856.55 553.484L856.547 553.485L856.543 553.486L856.542 553.486L655.415 607.866C654.74 608.049 654.013 607.745 653.791 607.188C653.57 606.631 653.938 606.031 654.614 605.848L855.748 551.466L855.756 551.464L856.149 552.475C855.756 551.464 855.756 551.464 855.757 551.464L855.757 551.464L855.761 551.463L855.775 551.459L855.834 551.444L856.067 551.382C856.274 551.326 856.582 551.244 856.985 551.135C857.793 550.917 858.983 550.594 860.514 550.172C863.577 549.327 868.001 548.088 873.443 546.51C884.328 543.352 899.284 538.839 915.565 533.416ZM1114.85 401.957C1114.14 401.957 1113.57 402.432 1113.57 403.018H1114.85C1113.57 403.018 1113.57 403.019 1113.57 403.019V403.021V403.027V403.052L1113.57 403.153C1113.57 403.243 1113.57 403.377 1113.56 403.554C1113.56 403.908 1113.56 404.433 1113.56 405.116C1113.55 406.483 1113.54 408.484 1113.51 411.022C1113.45 416.096 1113.34 423.314 1113.12 431.885C1112.68 449.029 1111.79 471.579 1110.01 493.216C1109.54 498.884 1107.29 504.752 1100.51 511.104C1093.69 517.491 1082.28 524.396 1063.41 532.029C1062.77 532.288 1062.51 532.924 1062.82 533.45C1063.13 533.976 1063.9 534.194 1064.54 533.936C1083.56 526.243 1095.31 519.19 1102.44 512.507C1109.61 505.788 1112.07 499.472 1112.57 493.36C1114.36 471.677 1115.25 449.091 1115.69 431.931C1115.92 423.35 1116.03 416.123 1116.08 411.041C1116.11 408.5 1116.13 406.495 1116.13 405.125C1116.14 404.44 1116.14 403.914 1116.14 403.558C1116.14 403.381 1116.14 403.246 1116.14 403.156L1116.14 403.053V403.027V403.021V403.019C1116.14 403.019 1116.14 403.018 1114.85 403.018H1116.14C1116.14 402.432 1115.56 401.957 1114.85 401.957ZM975.255 568.673C974.989 568.129 974.239 567.866 973.58 568.086C952.978 574.943 934.055 580.648 920.282 584.64C913.395 586.635 907.798 588.202 903.922 589.269C901.985 589.803 900.478 590.212 899.456 590.488C898.945 590.625 898.555 590.73 898.294 590.799L897.998 590.878L897.924 590.898L897.905 590.903L897.901 590.904L897.9 590.904C897.9 590.904 897.899 590.904 898.057 591.31L897.899 590.904L897.891 590.906L643.461 659.639C642.785 659.822 642.417 660.421 642.638 660.978C642.859 661.536 643.586 661.839 644.262 661.657L898.685 592.926L898.686 592.926L898.691 592.925L898.692 592.924L898.71 592.92L898.786 592.899L898.944 592.857L899.085 592.82L899.393 592.738L899.605 592.681C899.794 592.63 900.011 592.572 900.255 592.506C901.282 592.229 902.794 591.819 904.738 591.283C908.624 590.213 914.234 588.642 921.135 586.643C934.934 582.644 953.895 576.927 974.543 570.055C975.202 569.836 975.521 569.217 975.255 568.673ZM1207.94 412.927C1207.94 412.341 1208.51 411.866 1209.22 411.866C1209.93 411.866 1210.51 412.341 1210.51 412.927L1209.22 412.927L1207.94 412.927ZM1209.22 412.927C1210.51 412.927 1210.51 412.928 1210.51 412.928V412.93V412.937V412.966L1210.51 413.078L1210.51 413.242L1210.51 413.523C1210.51 413.915 1210.51 414.496 1210.5 415.254C1210.49 416.771 1210.48 418.995 1210.44 421.827C1210.37 427.491 1210.24 435.587 1209.97 445.316C1209.43 464.773 1208.36 490.769 1206.21 516.914C1205.61 524.239 1202.66 531.811 1194.06 539.876C1185.49 547.906 1171.35 556.397 1148.44 565.668C1147.8 565.927 1147.03 565.709 1146.72 565.183C1146.4 564.656 1146.67 564.02 1147.31 563.762C1170.07 554.55 1183.87 546.207 1192.12 538.473C1200.34 530.775 1203.08 523.651 1203.64 516.77C1205.79 490.668 1206.86 464.707 1207.4 445.268C1207.67 435.549 1207.8 427.463 1207.87 421.806C1207.9 418.978 1207.92 416.758 1207.93 415.245C1207.93 414.488 1207.93 413.908 1207.93 413.518C1207.94 413.323 1207.94 413.175 1207.94 413.076L1207.94 412.964V412.936V412.93V412.928C1207.94 412.927 1207.94 412.927 1209.22 412.927ZM1038.97 607.254C1039.63 607.035 1040.38 607.298 1040.65 607.842C1040.91 608.385 1040.59 609.004 1039.93 609.223C1015.04 617.51 992.181 624.403 975.544 629.226C967.225 631.637 960.461 633.53 955.776 634.821C953.433 635.467 951.61 635.962 950.372 636.295C949.753 636.462 949.281 636.589 948.963 636.673C948.803 636.716 948.683 636.748 948.602 636.769L948.511 636.794L948.487 636.8L948.481 636.801L948.48 636.802L641.688 719.694C641.012 719.877 640.285 719.573 640.064 719.016C639.843 718.459 640.211 717.859 640.887 717.677L947.686 634.782L947.695 634.78L948.087 635.791C947.695 634.78 947.695 634.78 947.695 634.78L947.696 634.779L947.702 634.778L947.724 634.772L947.814 634.748C947.894 634.727 948.013 634.695 948.171 634.653C948.486 634.569 948.957 634.443 949.573 634.277C950.806 633.945 952.624 633.451 954.961 632.807C959.635 631.519 966.386 629.629 974.691 627.222C991.301 622.408 1014.12 615.526 1038.97 607.254ZM1121.04 667.073C1121.7 666.853 1122.45 667.116 1122.72 667.66C1122.98 668.204 1122.67 668.823 1122.01 669.042C1091.29 679.264 1063.08 687.768 1042.55 693.717C1032.29 696.691 1023.94 699.027 1018.16 700.619C1015.27 701.416 1013.02 702.026 1011.49 702.437C1011.18 702.523 1010.89 702.6 1010.64 702.668L1010.27 702.766C1010.07 702.819 1009.9 702.865 1009.76 702.904C1009.56 702.956 1009.41 702.996 1009.31 703.022L1009.2 703.052L1009.17 703.06L1009.17 703.06L1009.16 703.061L1009.16 703.062L741.634 775.325C740.959 775.508 740.232 775.204 740.011 774.647C739.79 774.09 740.158 773.49 740.833 773.308L1008.37 701.042L1008.38 701.04L1008.77 702.051C1008.38 701.04 1008.38 701.04 1008.38 701.04L1008.38 701.039L1008.38 701.038L1008.41 701.03L1008.52 701.001C1008.62 700.975 1008.77 700.936 1008.96 700.883L1009.24 700.809C1009.46 700.751 1009.72 700.681 1010.02 700.601L1010.33 700.518L1010.7 700.419C1012.22 700.009 1014.46 699.4 1017.35 698.605C1023.12 697.016 1031.45 694.684 1041.7 691.713C1062.2 685.772 1090.37 677.28 1121.04 667.073Z" fill="url(#paint13_linear_422_424)" fill-opacity="0.5"/>
<path d="M1278.28 748.766L664.88 388.863L1278.28 778.139V748.766Z" fill="#1F0847"/>
<path d="M655.014 387.448L662.917 374L671.314 387.448H655.014Z" fill="url(#paint14_linear_422_424)"/>
<g filter="url(#filter0_d_422_424)">
<path fill-rule="evenodd" clip-rule="evenodd" d="M667.228 387.748L667.635 387.126L1277.61 619.984C1277.82 620.066 1277.92 620.276 1277.82 620.453C1277.72 620.631 1277.46 620.708 1277.25 620.626L673.504 390.147L1277.65 701.399C1277.86 701.502 1277.92 701.721 1277.79 701.886C1277.67 702.052 1277.4 702.103 1277.2 701.999L667.228 387.748Z" fill="url(#paint15_linear_422_424)"/>
</g>
<g filter="url(#filter1_d_422_424)">
<path fill-rule="evenodd" clip-rule="evenodd" d="M667.244 387.755L667.641 387.129L1277.61 629.895C1277.83 629.98 1277.92 630.191 1277.81 630.367C1277.71 630.544 1277.45 630.617 1277.24 630.532L679.132 392.488L1277.64 671.664C1277.84 671.76 1277.92 671.976 1277.8 672.147C1277.68 672.317 1277.42 672.377 1277.22 672.28L667.244 387.755Z" fill="url(#paint16_linear_422_424)"/>
</g>
<g filter="url(#filter2_d_422_424)">
<path fill-rule="evenodd" clip-rule="evenodd" d="M667.254 387.76L667.647 387.131L667.655 387.135L1277.62 639.807C1277.83 639.894 1277.92 640.107 1277.81 640.282C1277.7 640.456 1277.45 640.527 1277.23 640.439L703.574 402.806L1277.63 653.258C1277.84 653.349 1277.92 653.563 1277.81 653.736C1277.7 653.909 1277.44 653.975 1277.23 653.883L667.262 387.764L667.254 387.76Z" fill="url(#paint17_linear_422_424)"/>
</g>
<path fill-rule="evenodd" clip-rule="evenodd" d="M664.563 387.605L665.835 385.771L1279.24 612.612C1279.89 612.852 1280.18 613.48 1279.89 614.015C1279.6 614.55 1278.84 614.79 1278.19 614.55L676.706 392.118L1279.46 745.423C1280.04 745.763 1280.17 746.425 1279.76 746.903C1279.35 747.381 1278.55 747.494 1277.97 747.154L664.563 387.605Z" fill="url(#paint18_linear_422_424)"/>
<path fill-rule="evenodd" clip-rule="evenodd" d="M753.674 414.343C753.674 413.757 753.098 413.281 752.387 413.281C751.676 413.281 751.1 413.757 751.1 414.343V425.667C751.1 426.254 751.676 426.729 752.387 426.729C753.098 426.729 753.674 426.254 753.674 425.667V414.343ZM760.537 416.112C761.248 416.112 761.824 416.588 761.824 417.174V429.206C761.824 429.793 761.248 430.268 760.537 430.268C759.826 430.268 759.25 429.793 759.25 429.206V417.174C759.25 416.588 759.826 416.112 760.537 416.112ZM771.261 419.651C771.261 419.065 770.685 418.59 769.974 418.59C769.263 418.59 768.687 419.065 768.687 419.651V432.745C768.687 433.331 769.263 433.807 769.974 433.807C770.685 433.807 771.261 433.331 771.261 432.745V419.651ZM781.127 423.19C781.838 423.19 782.414 423.665 782.414 424.252V438.053C782.414 438.64 781.838 439.115 781.127 439.115C780.416 439.115 779.84 438.64 779.84 438.053V424.252C779.84 423.665 780.416 423.19 781.127 423.19ZM796.14 428.498C796.14 427.912 795.564 427.437 794.853 427.437C794.143 427.437 793.567 427.912 793.567 428.498V444.069C793.567 444.656 794.143 445.131 794.853 445.131C795.564 445.131 796.14 444.656 796.14 444.069V428.498ZM811.583 432.745C812.293 432.745 812.869 433.22 812.869 433.807V451.855C812.869 452.441 812.293 452.917 811.583 452.917C810.872 452.917 810.296 452.441 810.296 451.855V433.807C810.296 433.22 810.872 432.745 811.583 432.745ZM833.459 439.115C833.459 438.529 832.883 438.053 832.172 438.053C831.462 438.053 830.886 438.529 830.886 439.115V461.056C830.886 461.642 831.462 462.118 832.172 462.118C832.883 462.118 833.459 461.642 833.459 461.056V439.115ZM860.483 447.608C861.194 447.608 861.77 448.084 861.77 448.67V474.15C861.77 474.736 861.194 475.211 860.483 475.211C859.773 475.211 859.197 474.736 859.197 474.15V448.67C859.197 448.084 859.773 447.608 860.483 447.608ZM899.947 461.41C899.947 460.824 899.371 460.348 898.66 460.348C897.95 460.348 897.373 460.824 897.373 461.41V491.136C897.373 491.723 897.95 492.198 898.66 492.198C899.371 492.198 899.947 491.723 899.947 491.136V461.41ZM947.99 475.919C948.701 475.919 949.277 476.395 949.277 476.981V513.431C949.277 514.018 948.701 514.493 947.99 514.493C947.279 514.493 946.703 514.018 946.703 513.431V476.981C946.703 476.395 947.279 475.919 947.99 475.919ZM1014.48 497.152C1014.48 496.566 1013.9 496.091 1013.19 496.091C1012.48 496.091 1011.9 496.566 1011.9 497.152V542.804C1011.9 543.39 1012.48 543.865 1013.19 543.865C1013.9 543.865 1014.48 543.39 1014.48 542.804V497.152ZM1099.84 523.694C1100.55 523.694 1101.13 524.169 1101.13 524.756V582.439C1101.13 583.025 1100.55 583.501 1099.84 583.501C1099.13 583.501 1098.55 583.025 1098.55 582.439V524.756C1098.55 524.169 1099.13 523.694 1099.84 523.694ZM1215.23 560.498C1215.94 560.498 1216.52 560.973 1216.52 561.56V634.46C1216.52 635.047 1215.94 635.522 1215.23 635.522C1214.52 635.522 1213.94 635.047 1213.94 634.46V561.56C1213.94 560.973 1214.52 560.498 1215.23 560.498Z" fill="white"/>
<path fill-rule="evenodd" clip-rule="evenodd" d="M733.567 407.3L736.162 416.577L739.135 409.218L742.54 419.75L745.562 411.201L748.989 422.865L751.975 414.246L752.808 414.275L755.545 425.886L760.655 416.049L764.512 429.483L770.092 418.505L774.433 433.905L781.689 423.34L787.249 439.57L794.97 427.184L801.443 446.053L811.735 432.963L819.039 453.879L832.329 438.317L841.808 464.266L860.652 448.012L873.977 478.51L899.273 461.178L916.015 496.594L948.167 477.142L971.763 521.383L1013.79 496.614L1045.97 555.014L1100.01 524.585L1142.92 598.563L1215.4 561.411L1277.58 660.446L1276.81 660.771L1215.06 562.416L1142.55 599.581L1099.67 525.634L1045.61 556.073L1013.45 497.69L971.402 522.465L947.813 478.235L915.622 497.71L898.906 462.349L873.585 479.699L860.315 449.327L841.411 465.632L832.016 439.913L818.71 455.493L811.431 434.65L801.133 447.748L794.737 429.105L787.016 441.491L781.423 425.164L774.095 435.832L769.857 420.797L764.284 431.761L760.419 418.299L755.235 428.279L752.308 415.86L748.921 425.638L745.486 413.945L742.503 422.383L739.044 411.682L736.012 419.187L733.459 410.061L731.227 416.199L730.405 415.996L733.567 407.3Z" fill="url(#paint19_linear_422_424)"/>
<path d="M667.025 386.74C667.025 387.522 666.257 388.155 665.309 388.155C664.361 388.155 663.593 387.522 663.593 386.74C663.593 385.958 664.361 385.324 665.309 385.324C666.257 385.324 667.025 385.958 667.025 386.74Z" fill="white"/>
<path d="M482.216 249.844H579.304L530.76 355.072L482.216 249.844ZM530.76 342.048L570.868 255.32H490.8L530.76 342.048Z" fill="#7BBAF3"/>
<path d="M604.795 249.992H677.314V255.468H610.271V297.204H668.583V302.68H610.271V347.524H677.314V353H604.795V249.992Z" fill="#7BBAF3"/>
<path d="M798.413 353H701.325L749.869 247.772L798.413 353ZM709.909 347.524H789.829L749.869 260.796L709.909 347.524Z" fill="#7BBAF3"/>
<g clip-path="url(#clip1_422_424)">
<path fill-rule="evenodd" clip-rule="evenodd" d="M633.998 533L653.248 533.86L661.042 551.175L650.046 567L630.691 565.761L622.756 547L633.998 533ZM648.111 542.981L634.159 549.076L646.086 558.297L648.111 542.981ZM646.496 539.927L635.346 535.127L633.004 545.219L646.496 539.927ZM643.669 560.617L631.552 551.965L631.845 563.689L643.669 560.617ZM659.107 551.137L650.849 542.759L648.669 558.87L659.107 551.137ZM646.51 562.501L636.291 565.172L648.309 565.941L646.51 562.501ZM657.492 554.938L648.547 561.602L650.325 565.075L657.492 554.938ZM653.262 536.28L651.523 539.846L657.991 546.419L653.262 536.28ZM651.097 534.573L639.74 534.112L649.108 538.209L651.097 534.573ZM632.339 536.222L624.385 546.265L629.703 547.392L632.339 536.222ZM629.382 549.362L624.038 548.231L629.614 561.365L629.382 549.362Z" fill="white"/>
<path fill-rule="evenodd" clip-rule="evenodd" d="M674.298 548.802H673.652V543.052H671.92V556.545H673.652V550.226H674.247L679.699 556.882L681.017 555.768L675.771 549.423L680.242 543.751L678.923 542.715L674.298 548.802ZM689.365 543.052H687.633V556.545H696.417V554.991H689.365V543.052ZM702.799 543.052H711.198V544.606H704.531V548.646H710.034V550.2H704.531V554.991H711.198V556.546H702.799V543.052ZM722.671 543.052H718.097V556.545H719.829V550.769H722.335L725.771 556.882L727.27 555.975L723.963 550.511C725.589 550.018 726.7 548.387 726.7 546.729C726.7 544.114 724.918 543.052 722.671 543.052ZM724.891 546.729C724.891 548.258 723.78 549.216 722.103 549.216H719.829V544.606H722.617C724.168 544.606 724.891 545.512 724.891 546.729ZM742.285 549.811C742.285 550.899 742.207 556.778 737.504 556.778C735.333 556.778 732.724 555.224 732.724 549.811C732.724 544.424 735.282 542.818 737.504 542.818C739.648 542.818 742.285 544.372 742.285 549.811ZM734.533 549.811C734.533 551.779 734.894 555.146 737.504 555.146C740.115 555.146 740.476 551.779 740.476 549.811C740.476 547.817 740.115 544.45 737.504 544.45C734.894 544.45 734.533 547.817 734.533 549.811ZM753.138 555.146C751.329 555.146 750.527 553.929 750.191 552.271L748.641 552.763C749.055 555.172 750.63 556.778 753.138 556.778C755.618 556.778 757.402 555.327 757.402 552.763C757.402 551.365 756.755 550.277 755.541 549.603L752.672 548.334C751.639 547.868 750.863 547.506 750.863 546.237C750.863 545.02 751.949 544.45 753.06 544.45C754.533 544.45 755.23 545.382 755.541 546.703L757.195 546.211C756.653 544.113 755.334 542.818 753.085 542.818C750.966 542.818 749.132 544.087 749.132 546.366C749.132 548.681 750.68 549.315 752.442 550.038C752.612 550.108 752.784 550.178 752.957 550.251C753.064 550.296 753.173 550.339 753.281 550.383C754.494 550.871 755.669 551.345 755.669 552.867C755.669 554.369 754.559 555.146 753.138 555.146Z" fill="white"/>
</g>
<path d="M546.005 542.41H549.888C551.638 542.41 552.923 542.707 553.743 543.301C554.563 543.895 554.972 544.793 554.972 545.993C554.972 546.813 554.721 547.498 554.217 548.047C553.72 548.589 552.99 548.937 552.028 549.092V549.151C553.158 549.318 553.988 549.677 554.517 550.226C555.053 550.768 555.321 551.526 555.321 552.501C555.321 553.805 554.889 554.809 554.023 555.513C553.158 556.217 551.932 556.569 550.343 556.569H546.005V542.41ZM546.993 548.715H550.111C551.441 548.715 552.406 548.495 553.007 548.056C553.613 547.611 553.917 546.917 553.917 545.974C553.917 545.032 553.575 544.347 552.89 543.921C552.212 543.495 551.199 543.282 549.85 543.282H546.993V548.715ZM546.993 549.586V555.697H550.324C552.945 555.697 554.256 554.632 554.256 552.501C554.256 550.558 552.874 549.586 550.111 549.586H546.993Z" fill="white"/>
<path d="M559.03 546.042V552.86C559.03 553.918 559.253 554.69 559.698 555.174C560.144 555.652 560.835 555.891 561.771 555.891C563.023 555.891 563.943 555.574 564.531 554.942C565.125 554.309 565.422 553.279 565.422 551.852V546.042H566.371V556.569H565.557L565.383 555.116H565.325C564.641 556.214 563.424 556.762 561.674 556.762C559.279 556.762 558.081 555.481 558.081 552.918V546.042H559.03Z" fill="white"/>
<path d="M570.855 556.569H569.896V546.042H570.855V556.569ZM569.76 543.117C569.76 542.497 569.964 542.188 570.37 542.188C570.571 542.188 570.726 542.268 570.835 542.43C570.951 542.591 571.01 542.82 571.01 543.117C571.01 543.408 570.951 543.637 570.835 543.805C570.726 543.973 570.571 544.057 570.37 544.057C569.964 544.057 569.76 543.744 569.76 543.117Z" fill="white"/>
<path d="M575.348 556.569H574.389V541.5H575.348V556.569Z" fill="white"/>
<path d="M581.662 555.91C582.269 555.91 582.799 555.859 583.25 555.755V556.53C582.786 556.685 582.25 556.762 581.643 556.762C580.713 556.762 580.026 556.514 579.58 556.017C579.141 555.52 578.922 554.738 578.922 553.673V546.875H577.362V546.313L578.922 545.877L579.406 543.495H579.9V546.042H582.989V546.875H579.9V553.538C579.9 554.345 580.042 554.942 580.326 555.329C580.61 555.716 581.055 555.91 581.662 555.91Z" fill="white"/>
<path d="M595.123 545.839C596.595 545.839 597.703 546.303 598.445 547.233C599.194 548.156 599.568 549.509 599.568 551.291C599.568 553.04 599.175 554.39 598.387 555.339C597.606 556.288 596.505 556.762 595.085 556.762C594.336 556.762 593.661 556.607 593.061 556.298C592.46 555.988 591.986 555.549 591.637 554.98H591.55L591.279 556.569H590.678V541.5H591.637V545.287C591.637 545.855 591.624 546.378 591.598 546.855L591.569 547.679H591.637C592.037 547.046 592.518 546.581 593.08 546.284C593.648 545.987 594.329 545.839 595.123 545.839ZM595.104 546.71C593.864 546.71 592.977 547.065 592.441 547.775C591.905 548.486 591.637 549.657 591.637 551.291V551.455C591.637 553.044 591.915 554.183 592.47 554.874C593.032 555.565 593.903 555.91 595.085 555.91C596.234 555.91 597.099 555.51 597.68 554.709C598.261 553.902 598.552 552.756 598.552 551.271C598.552 548.231 597.402 546.71 595.104 546.71Z" fill="white"/>
<path d="M600.731 546.042H601.718L603.946 551.949C604.624 553.763 605.053 554.987 605.234 555.62H605.292C605.563 554.787 606.005 553.544 606.619 551.891L608.846 546.042H609.834L605.118 558.273C604.737 559.267 604.417 559.939 604.159 560.287C603.901 560.636 603.597 560.898 603.248 561.072C602.906 561.246 602.49 561.333 601.999 561.333C601.631 561.333 601.221 561.266 600.769 561.13V560.297C601.144 560.4 601.547 560.452 601.98 560.452C602.309 560.452 602.6 560.375 602.851 560.22C603.103 560.065 603.329 559.823 603.529 559.493C603.736 559.171 603.972 558.654 604.236 557.944C604.507 557.24 604.682 556.782 604.759 556.569L600.731 546.042Z" fill="white"/>
</g>
<defs>
<filter id="filter0_d_422_424" x="659.228" y="379.126" width="626.629" height="330.927" filterUnits="userSpaceOnUse" color-interpolation-filters="sRGB">
<feFlood flood-opacity="0" result="BackgroundImageFix"/>
<feColorMatrix in="SourceAlpha" type="matrix" values="0 0 0 0 0 0 0 0 0 0 0 0 0 0 0 0 0 0 127 0" result="hardAlpha"/>
<feOffset/>
<feGaussianBlur stdDeviation="4"/>
<feComposite in2="hardAlpha" operator="out"/>
<feColorMatrix type="matrix" values="0 0 0 0 1 0 0 0 0 1 0 0 0 0 1 0 0 0 1 0"/>
<feBlend mode="normal" in2="BackgroundImageFix" result="effect1_dropShadow_422_424"/>
<feBlend mode="normal" in="SourceGraphic" in2="effect1_dropShadow_422_424" result="shape"/>
</filter>
<filter id="filter1_d_422_424" x="659.244" y="379.129" width="626.613" height="301.198" filterUnits="userSpaceOnUse" color-interpolation-filters="sRGB">
<feFlood flood-opacity="0" result="BackgroundImageFix"/>
<feColorMatrix in="SourceAlpha" type="matrix" values="0 0 0 0 0 0 0 0 0 0 0 0 0 0 0 0 0 0 127 0" result="hardAlpha"/>
<feOffset/>
<feGaussianBlur stdDeviation="4"/>
<feComposite in2="hardAlpha" operator="out"/>
<feColorMatrix type="matrix" values="0 0 0 0 1 0 0 0 0 1 0 0 0 0 1 0 0 0 1 0"/>
<feBlend mode="normal" in2="BackgroundImageFix" result="effect1_dropShadow_422_424"/>
<feBlend mode="normal" in="SourceGraphic" in2="effect1_dropShadow_422_424" result="shape"/>
</filter>
<filter id="filter2_d_422_424" x="659.254" y="379.131" width="626.602" height="282.793" filterUnits="userSpaceOnUse" color-interpolation-filters="sRGB">
<feFlood flood-opacity="0" result="BackgroundImageFix"/>
<feColorMatrix in="SourceAlpha" type="matrix" values="0 0 0 0 0 0 0 0 0 0 0 0 0 0 0 0 0 0 127 0" result="hardAlpha"/>
<feOffset/>
<feGaussianBlur stdDeviation="4"/>
<feComposite in2="hardAlpha" operator="out"/>
<feColorMatrix type="matrix" values="0 0 0 0 1 0 0 0 0 1 0 0 0 0 1 0 0 0 1 0"/>
<feBlend mode="normal" in2="BackgroundImageFix" result="effect1_dropShadow_422_424"/>
<feBlend mode="normal" in="SourceGraphic" in2="effect1_dropShadow_422_424" result="shape"/>
</filter>
<linearGradient id="paint0_linear_422_424" x1="957.697" y1="5.81714" x2="957.697" y2="290.401" gradientUnits="userSpaceOnUse">
<stop stop-color="#C1F0FF"/>
<stop offset="1" stop-color="#4C7FF2"/>
</linearGradient>
<linearGradient id="paint1_linear_422_424" x1="912.048" y1="63.2559" x2="912.048" y2="230.677" gradientUnits="userSpaceOnUse">
<stop stop-color="white"/>
<stop offset="1" stop-color="#B0C9FF"/>
</linearGradient>
<linearGradient id="paint2_linear_422_424" x1="934.872" y1="24.0929" x2="934.872" y2="380.149" gradientUnits="userSpaceOnUse">
<stop stop-color="#58CAFE"/>
<stop offset="1" stop-color="#4C7FF2"/>
</linearGradient>
<linearGradient id="paint3_linear_422_424" x1="986.553" y1="63.2559" x2="986.937" y2="450.17" gradientUnits="userSpaceOnUse">
<stop stop-color="#71A9EA"/>
<stop offset="1" stop-color="#1B003F"/>
</linearGradient>
<linearGradient id="paint4_linear_422_424" x1="971.903" y1="82.1846" x2="972.275" y2="469.099" gradientUnits="userSpaceOnUse">
<stop stop-color="#71A9EA"/>
<stop offset="0.421875" stop-color="#1B003F"/>
</linearGradient>
<linearGradient id="paint5_linear_422_424" x1="999.946" y1="146.674" x2="1000.27" y2="664.129" gradientUnits="userSpaceOnUse">
<stop stop-color="#1B003F"/>
<stop offset="0.932292" stop-color="#414B8B"/>
</linearGradient>
<linearGradient id="paint6_linear_422_424" x1="491.697" y1="5.81714" x2="491.697" y2="290.401" gradientUnits="userSpaceOnUse">
<stop stop-color="#C1F0FF"/>
<stop offset="1" stop-color="#4C7FF2"/>
</linearGradient>
<linearGradient id="paint7_linear_422_424" x1="446.048" y1="63.2559" x2="446.048" y2="230.677" gradientUnits="userSpaceOnUse">
<stop stop-color="white"/>
<stop offset="1" stop-color="#B0C9FF"/>
</linearGradient>
<linearGradient id="paint8_linear_422_424" x1="468.872" y1="24.0929" x2="468.872" y2="380.149" gradientUnits="userSpaceOnUse">
<stop stop-color="#58CAFE"/>
<stop offset="1" stop-color="#4C7FF2"/>
</linearGradient>
<linearGradient id="paint9_linear_422_424" x1="520.553" y1="63.2559" x2="520.937" y2="450.17" gradientUnits="userSpaceOnUse">
<stop stop-color="#71A9EA"/>
<stop offset="1" stop-color="#1B003F"/>
</linearGradient>
<linearGradient id="paint10_linear_422_424" x1="505.903" y1="82.1846" x2="506.275" y2="469.099" gradientUnits="userSpaceOnUse">
<stop stop-color="#71A9EA"/>
<stop offset="0.421875" stop-color="#1B003F"/>
</linearGradient>
<linearGradient id="paint11_linear_422_424" x1="533.946" y1="146.674" x2="534.269" y2="664.129" gradientUnits="userSpaceOnUse">
<stop stop-color="#1B003F"/>
<stop offset="0.932292" stop-color="#414B8B"/>
</linearGradient>
<linearGradient id="paint12_linear_422_424" x1="640" y1="355.532" x2="640" y2="542.797" gradientUnits="userSpaceOnUse">
<stop stop-color="#4A5C9C"/>
<stop offset="1" stop-color="#1B003F"/>
</linearGradient>
<linearGradient id="paint13_linear_422_424" x1="946.703" y1="545.989" x2="709.548" y2="648.23" gradientUnits="userSpaceOnUse">
<stop stop-color="#322D6D"/>
<stop offset="1" stop-color="#343271" stop-opacity="0.07"/>
</linearGradient>
<linearGradient id="paint14_linear_422_424" x1="663.164" y1="374" x2="663.164" y2="387.448" gradientUnits="userSpaceOnUse">
<stop stop-color="#200A4A"/>
<stop offset="1" stop-color="#3B4080"/>
</linearGradient>
<linearGradient id="paint15_linear_422_424" x1="972.441" y1="528.648" x2="1248.65" y2="709.215" gradientUnits="userSpaceOnUse">
<stop stop-color="#70C1FC"/>
<stop offset="1" stop-color="white"/>
</linearGradient>
<linearGradient id="paint16_linear_422_424" x1="1063.38" y1="560.144" x2="1257.84" y2="685.074" gradientUnits="userSpaceOnUse">
<stop stop-color="#FAD3F1"/>
<stop offset="1" stop-color="white"/>
</linearGradient>
<linearGradient id="paint17_linear_422_424" x1="1094.26" y1="570.407" x2="1263.51" y2="666.747" gradientUnits="userSpaceOnUse">
<stop stop-color="#70C1FC"/>
<stop offset="1" stop-color="white"/>
</linearGradient>
<linearGradient id="paint18_linear_422_424" x1="1082.68" y1="573.592" x2="1248.85" y2="732.262" gradientUnits="userSpaceOnUse">
<stop stop-color="#FFDDF7"/>
<stop offset="1" stop-color="white"/>
</linearGradient>
<linearGradient id="paint19_linear_422_424" x1="992.601" y1="517.324" x2="1254.27" y2="668.495" gradientUnits="userSpaceOnUse">
<stop stop-color="#C1F0FF"/>
<stop offset="1" stop-color="white"/>
</linearGradient>
<clipPath id="clip0_422_424">
<rect width="1280" height="640" fill="white"/>
</clipPath>
<clipPath id="clip1_422_424">
<rect width="136" height="34" fill="white" transform="translate(621.917 533)"/>
</clipPath>
</defs>
</svg>
